<?xml version="1.0" encoding="utf-8"?>
<!-- Generator: Adobe Illustrator 22.0.1, SVG Export Plug-In . SVG Version: 6.00 Build 0)  -->
<svg version="1.1" id="圖層_1" xmlns="http://www.w3.org/2000/svg" xmlns:xlink="http://www.w3.org/1999/xlink" x="0px" y="0px"
	 viewBox="0 0 24 24" style="enable-background:new 0 0 24 24;" xml:space="preserve">
<style type="text/css">
	.st0{fill:none;}
	.st1{fill:#2F419B;}
</style>
<path class="st0" d="M0,0h24v24H0V0z"/>
<path class="st1" d="M6.8,4.8L5,3.1L3.6,4.5l1.8,1.8L6.8,4.8z M1,10.5h3v2H1V10.5z M11,0.6h2v3h-2V0.6z M19,3l1.4,1.4l-1.8,1.8
	l-1.4-1.4L19,3z M17.2,18.2L19,20l1.4-1.4l-1.8-1.8L17.2,18.2z M20,10.5h3v2h-3V10.5z M12,5.5c-3.3,0-6,2.7-6,6s2.7,6,6,6s6-2.7,6-6
	S15.3,5.5,12,5.5z M12,15.5c-2.2,0-4-1.8-4-4s1.8-4,4-4s4,1.8,4,4S14.2,15.5,12,15.5z M11,19.5h2v3h-2V19.5z M3.6,18.5L5,20l1.8-1.8
	l-1.4-1.4L3.6,18.5z"/>
</svg>
